<?xml version="1.0" encoding="UTF-8"?>
<svg id="Layer_1" data-name="Layer 1" xmlns="http://www.w3.org/2000/svg" width="180" height="180" viewBox="0 0 180 180">
  <defs>
    <style>
      .cls-1 {
        fill: #2563eb;
      }
    </style>
  </defs>
  <rect class="cls-1" x="26.56" y="40.86" width="50.93" height="50.93" rx="11.26" ry="11.26"/>
  <path class="cls-1" d="M127.88,91.79h-28.41c-6.21,0-11.26-5.05-11.26-11.26v-28.41c0-6.21,5.05-11.26,11.26-11.26h28.41c6.21,0,11.26,5.05,11.26,11.26v28.41c0,6.21-5.05,11.26-11.26,11.26ZM99.47,46.22c-3.25,0-5.9,2.64-5.9,5.9v28.41c0,3.25,2.65,5.9,5.9,5.9h28.41c3.25,0,5.9-2.64,5.9-5.9v-28.41c0-3.25-2.65-5.9-5.9-5.9h-28.41Z"/>
  <rect class="cls-1" x="102.51" y="26.56" width="50.93" height="50.93" rx="11.26" ry="11.26"/>
  <rect class="cls-1" x="26.56" y="102.51" width="50.93" height="50.93" rx="11.26" ry="11.26"/>
  <rect class="cls-1" x="88.21" y="102.51" width="50.93" height="50.93" rx="11.26" ry="11.26"/>
</svg>